<?xml version="1.0" encoding="utf-8"?>
<!-- Generator: Adobe Illustrator 13.0.0, SVG Export Plug-In . SVG Version: 6.00 Build 14948)  -->
<!DOCTYPE svg PUBLIC "-//W3C//DTD SVG 1.1//EN" "http://www.w3.org/Graphics/SVG/1.1/DTD/svg11.dtd">
<svg version="1.1" id="Layer_1" xmlns="http://www.w3.org/2000/svg" xmlns:xlink="http://www.w3.org/1999/xlink" x="0px" y="0px"
	 width="416px" height="142.893px" viewBox="0 0 416 142.893" enable-background="new 0 0 416 142.893" xml:space="preserve">
<g>
	<path fill="#26A9E0" d="M258.632,126.474V21.77h-6.969c-7.306,0-12.242,1.046-14.822,3.134c-2.584,2.091-4.479,6.558-5.7,13.409
		h-2.978l0.33-10.948l0.383-10.95h36.272h36.331l0.321,10.95l0.392,10.948h-2.978c-1.217-6.852-3.117-11.318-5.701-13.409
		c-2.576-2.088-7.518-3.134-14.813-3.134h-6.979v104.708L258.632,126.474z"/>
	<path fill="#005AA9" d="M60.503,118.113c-3.882,1.508-7.771,2.262-11.655,2.262c-5.117,0-8.798-1.127-11.038-3.393
		c-2.25-2.263-3.369-5.955-3.369-11.076V70.505l-2.301,0.057c-1.271,0.078-2.477,0.181-3.622,0.31
		c-1.139,0.132-1.917,0.271-2.329,0.419c0.224-1.495,0.338-2.785,0.338-3.874c0-1.046-0.114-2.301-0.338-3.759
		c0.449,0.186,1.257,0.348,2.42,0.476c1.158,0.133,2.354,0.215,3.59,0.253l2.241,0.111v-3.704c0-1.196-0.093-2.768-0.277-4.712
		c-0.187-1.945-0.431-3.74-0.731-5.388c3.399-1.233,6.326-2.373,8.757-3.418l6.732-3.088l1.405,0.956
		c-0.229,1.72-0.444,4.362-0.647,7.938c-0.206,3.569-0.326,7.374-0.364,11.416h1.843c1.64,0,3.297-0.093,4.978-0.279
		c1.676-0.185,2.91-0.411,3.689-0.673c-0.26,1.497-0.394,2.786-0.394,3.87c0,1.125,0.133,2.451,0.394,3.985
		c-0.779-0.26-2.022-0.484-3.718-0.673c-1.694-0.188-3.362-0.279-5.007-0.279h-1.843v36.454c0,2.729,0.535,4.793,1.598,6.195
		c1.066,1.399,2.637,2.102,4.723,2.102c1.943-0.037,3.585-0.336,4.925-0.895V118.113z"/>
	<path fill="#005AA9" d="M79.054,34.448c2.465,0,4.552,0.86,6.257,2.581c1.694,1.723,2.552,3.817,2.552,6.282
		c0,2.469-0.857,4.555-2.552,6.26c-1.705,1.698-3.792,2.553-6.257,2.553c-2.468,0-4.552-0.854-6.253-2.553
		c-1.704-1.705-2.551-3.791-2.551-6.26c0-2.464,0.847-4.56,2.551-6.282C74.502,35.309,76.586,34.448,79.054,34.448z M71.615,104.99
		l0.053-13.35l-0.053-13.302c-0.074-3.774-0.179-6.609-0.312-8.499c-0.128-1.891-0.341-3.767-0.641-5.638
		c2.47,0.198,5.262,0.296,8.365,0.296c3.181,0,6.007-0.099,8.476-0.296c-0.299,1.871-0.514,3.748-0.647,5.638
		c-0.127,1.89-0.23,4.725-0.305,8.499l-0.059,13.351l0.059,13.301c0.075,3.777,0.177,6.609,0.305,8.498
		c0.134,1.889,0.348,3.768,0.647,5.639c-2.469-0.194-5.258-0.299-8.366-0.299c-3.176,0-6.004,0.104-8.474,0.299
		c0.299-1.871,0.522-3.762,0.67-5.664C71.445,111.593,71.541,108.767,71.615,104.99z"/>
	<path fill="#005AA9" d="M102.04,104.99l0.051-13.35l-0.051-13.302c-0.077-3.774-0.18-6.609-0.311-8.499
		c-0.128-1.891-0.344-3.767-0.642-5.638c2.321,0.198,4.976,0.296,7.963,0.296c3.039,0,5.73-0.099,8.09-0.296
		c-0.339,2.615-0.598,4.876-0.784,6.784l-0.11,1.458c0.855-1.154,1.769-2.214,2.738-3.186c4.143-4.207,8.918-6.308,14.325-6.308
		c5.221,0,9.367,1.736,12.421,5.214c1.348,1.533,2.388,3.292,3.132,5.271c1.086-1.533,2.231-2.916,3.429-4.151
		c4.149-4.22,8.925-6.333,14.317-6.333c5.238,0,9.382,1.729,12.437,5.188c3.053,3.454,4.577,8.136,4.577,14.041l-0.061,9.532
		L183.623,105c0.072,3.777,0.175,6.604,0.306,8.492c0.133,1.891,0.344,3.764,0.645,5.635c-2.467-0.194-5.258-0.299-8.364-0.299
		c-3.178,0-6.004,0.104-8.476,0.299c0.3-1.871,0.513-3.744,0.642-5.635c0.132-1.885,0.237-4.715,0.312-8.492l0.052-13.344v-7.791
		c0-3.701-0.737-6.492-2.217-8.383c-1.471-1.885-3.671-2.833-6.585-2.833c-3.215,0-5.635,1.161-7.266,3.48
		c-1.631,2.313-2.439,5.752-2.439,10.313v5.271L150.3,105c0.074,3.777,0.171,6.607,0.307,8.492c0.13,1.891,0.343,3.764,0.643,5.635
		c-2.469-0.194-5.254-0.299-8.365-0.299c-3.18,0-6.005,0.104-8.475,0.299c0.299-1.871,0.516-3.744,0.642-5.635
		c0.133-1.885,0.237-4.715,0.313-8.492l0.054-13.344v-7.734c0-3.7-0.746-6.504-2.234-8.41c-1.495-1.905-3.689-2.861-6.597-2.861
		c-3.208,0-5.616,1.161-7.238,3.48c-1.621,2.313-2.434,5.752-2.434,10.313v5.271L116.978,105c0.071,3.777,0.172,6.607,0.302,8.492
		c0.136,1.891,0.346,3.764,0.648,5.635c-2.472-0.194-5.26-0.299-8.368-0.299c-3.177,0-6.006,0.104-8.473,0.299
		c0.297-1.871,0.521-3.762,0.667-5.664C101.867,111.593,101.963,108.767,102.04,104.99z"/>
	<path fill="#005AA9" d="M221.975,120.375c-8.636,0-15.473-2.526-20.515-7.588c-5.042-5.063-7.56-11.945-7.56-20.645
		c0-8.966,2.434-16.072,7.313-21.317c4.871-5.251,11.465-7.873,19.758-7.873c7.396,0,13.266,2.388,17.598,7.166
		c3.478,3.806,5.554,8.771,6.22,14.894c0.187,1.604,0.303,3.189,0.34,4.759c0.037,1.563,0,2.688-0.11,3.354v0.113
		c-1.379-0.297-3.818-0.539-7.312-0.73c-3.492-0.186-7.052-0.278-10.672-0.278h-16.587c0.336,6.207,1.695,11.032,4.089,14.475
		c2.766,4.039,6.889,6.057,12.381,6.057c2.877,0,5.572-0.396,8.069-1.186c2.503-0.791,4.816-1.961,6.945-3.51l1.063,1.186
		l-3.041,6.631c-2.761,1.461-5.679,2.576-8.74,3.343C228.154,119.996,225.074,120.375,221.975,120.375z M228.587,86.218v-2.063
		c0-5.289-0.728-9.279-2.188-11.978c-1.457-2.698-3.621-4.049-6.491-4.049h0.059c-3.174,0-5.58,1.75-7.221,5.246
		c-1.422,3.056-2.203,7.334-2.351,12.842L228.587,86.218L228.587,86.218z"/>
	<path fill="#26A9E0" d="M311.306,120.375c-8.633,0-15.469-2.526-20.512-7.588c-5.041-5.063-7.563-11.945-7.563-20.645
		c0-8.966,2.439-16.072,7.32-21.317c4.869-5.251,11.459-7.873,19.752-7.873c7.398,0,13.267,2.388,17.603,7.166
		c3.475,3.806,5.549,8.771,6.219,14.894c0.188,1.604,0.299,3.189,0.338,4.759c0.039,1.563,0,2.688-0.109,3.354v0.113
		c-1.383-0.297-3.823-0.539-7.313-0.73c-3.492-0.186-7.045-0.278-10.67-0.278h-16.588c0.338,6.207,1.699,11.032,4.092,14.475
		c2.764,4.039,6.887,6.057,12.381,6.057c2.875,0,5.566-0.396,8.066-1.186c2.504-0.791,4.821-1.961,6.951-3.51l1.061,1.186
		l-3.039,6.631c-2.76,1.461-5.68,2.576-8.742,3.343C317.488,119.996,314.408,120.375,311.306,120.375z M317.923,86.218v-2.063
		c0-5.289-0.731-9.279-2.188-11.978c-1.453-2.698-3.621-4.049-6.492-4.049h0.061c-3.178,0-5.584,1.75-7.225,5.246
		c-1.422,3.056-2.201,7.334-2.35,12.842L317.923,86.218L317.923,86.218z"/>
	<path fill="#26A9E0" d="M388.337,109.548c-0.633,1.121-1.137,2.123-1.514,2.996c-0.369,0.883-0.765,1.959-1.179,3.23
		c-2.131,1.459-4.497,2.59-7.092,3.395c-2.596,0.808-5.186,1.205-7.756,1.205c-8.975,0-16.301-2.547-21.977-7.643
		c-5.683-5.103-8.519-11.685-8.519-19.75c0-9.228,2.744-16.537,8.236-21.934c5.494-5.396,12.918-8.097,22.264-8.097
		c3.361,0,6.701,0.469,10.012,1.403c3.302,0.936,6.312,2.263,8.994,3.985c-0.893,1.986-1.623,3.704-2.182,5.166
		s-1.174,3.241-1.846,5.334l-2.349-0.061c-0.565-3.32-1.877-5.889-3.93-7.698c-2.059-1.811-4.678-2.715-7.855-2.715
		c-4.717,0-8.381,1.97-11.002,5.914c-2.616,3.943-3.922,9.482-3.922,16.613c0,7.475,1.486,13.127,4.455,16.95
		c2.974,3.837,7.355,5.748,13.144,5.748c2.207,0,4.356-0.436,6.446-1.313c2.091-0.873,3.939-2.107,5.552-3.711L388.337,109.548z"/>
</g>
</svg>
